{
	"asset":{
		"generator":"Khronos glTF Blender I/O v4.4.56",
		"version":"2.0"
	},
	"scene":0,
	"scenes":[
		{
			"name":"Scene",
			"nodes":[
				0,
				1,
				2,
				3,
				4
			]
		}
	],
	"nodes":[
		{
			"mesh":0,
			"name":"\u7403.007",
			"translation":[
				-5.705293655395508,
				0.0008215329726226628,
				-5.364352703094482
			]
		},
		{
			"mesh":1,
			"name":"\u7403.016"
		},
		{
			"mesh":2,
			"name":"\u7403.024",
			"translation":[
				5.923882484436035,
				0.0008215230191126466,
				5.364354133605957
			]
		},
		{
			"mesh":3,
			"name":"\u7403.037",
			"translation":[
				5.9254560470581055,
				0.0008215904235839844,
				-5.362791061401367
			]
		},
		{
			"mesh":4,
			"name":"\u7403.002",
			"translation":[
				-5.706823825836182,
				0.0008215230191126466,
				5.36274528503418
			]
		}
	],
	"materials":[
		{
			"doubleSided":true,
			"name":"\u30de\u30c6\u30ea\u30a2\u30eb.004",
			"pbrMetallicRoughness":{
				"baseColorTexture":{
					"index":0
				},
				"metallicFactor":0,
				"roughnessFactor":0.5
			}
		},
		{
			"doubleSided":true,
			"name":"\u30de\u30c6\u30ea\u30a2\u30eb.003",
			"pbrMetallicRoughness":{
				"baseColorTexture":{
					"index":1
				},
				"metallicFactor":0,
				"roughnessFactor":0.5
			}
		},
		{
			"doubleSided":true,
			"name":"\u30de\u30c6\u30ea\u30a2\u30eb.001",
			"pbrMetallicRoughness":{
				"baseColorTexture":{
					"index":2
				},
				"metallicFactor":0,
				"roughnessFactor":0.5
			}
		},
		{
			"doubleSided":true,
			"name":"\u30de\u30c6\u30ea\u30a2\u30eb",
			"pbrMetallicRoughness":{
				"baseColorTexture":{
					"index":3
				},
				"metallicFactor":0,
				"roughnessFactor":0.5
			}
		},
		{
			"doubleSided":true,
			"name":"\u30de\u30c6\u30ea\u30a2\u30eb.005",
			"pbrMetallicRoughness":{
				"baseColorTexture":{
					"index":4
				},
				"metallicFactor":0,
				"roughnessFactor":0.5
			}
		},
		{
			"doubleSided":true,
			"name":"\u30de\u30c6\u30ea\u30a2\u30eb.007",
			"pbrMetallicRoughness":{
				"baseColorTexture":{
					"index":5
				},
				"metallicFactor":0,
				"roughnessFactor":0.5
			}
		},
		{
			"doubleSided":true,
			"name":"\u30de\u30c6\u30ea\u30a2\u30eb.008",
			"pbrMetallicRoughness":{
				"baseColorTexture":{
					"index":6
				},
				"metallicFactor":0,
				"roughnessFactor":0.5
			}
		},
		{
			"doubleSided":true,
			"name":"\u30de\u30c6\u30ea\u30a2\u30eb.006",
			"pbrMetallicRoughness":{
				"baseColorTexture":{
					"index":7
				},
				"metallicFactor":0,
				"roughnessFactor":0.5
			}
		},
		{
			"doubleSided":true,
			"name":"\u30de\u30c6\u30ea\u30a2\u30eb.002",
			"pbrMetallicRoughness":{
				"baseColorTexture":{
					"index":8
				},
				"metallicFactor":0,
				"roughnessFactor":0.5
			}
		}
	],
	"meshes":[
		{
			"name":"\u7403.121",
			"primitives":[
				{
					"attributes":{
						"POSITION":0,
						"NORMAL":1,
						"TEXCOORD_0":2
					},
					"indices":3,
					"material":0
				}
			]
		},
		{
			"name":"\u7403.130",
			"primitives":[
				{
					"attributes":{
						"POSITION":4,
						"NORMAL":5,
						"TEXCOORD_0":6
					},
					"indices":7,
					"material":1
				},
				{
					"attributes":{
						"POSITION":8,
						"NORMAL":9,
						"TEXCOORD_0":10
					},
					"indices":11,
					"material":2
				},
				{
					"attributes":{
						"POSITION":12,
						"NORMAL":13,
						"TEXCOORD_0":14
					},
					"indices":15,
					"material":3
				},
				{
					"attributes":{
						"POSITION":16,
						"NORMAL":17,
						"TEXCOORD_0":18
					},
					"indices":19,
					"material":4
				},
				{
					"attributes":{
						"POSITION":20,
						"NORMAL":21,
						"TEXCOORD_0":22
					},
					"indices":23,
					"material":5
				}
			]
		},
		{
			"name":"\u7403.150",
			"primitives":[
				{
					"attributes":{
						"POSITION":24,
						"NORMAL":25,
						"TEXCOORD_0":26
					},
					"indices":27,
					"material":6
				}
			]
		},
		{
			"name":"\u7403.162",
			"primitives":[
				{
					"attributes":{
						"POSITION":28,
						"NORMAL":29,
						"TEXCOORD_0":30
					},
					"indices":31,
					"material":7
				}
			]
		},
		{
			"name":"\u7403.172",
			"primitives":[
				{
					"attributes":{
						"POSITION":32,
						"NORMAL":33,
						"TEXCOORD_0":34
					},
					"indices":35,
					"material":8
				}
			]
		}
	],
	"textures":[
		{
			"sampler":0,
			"source":0
		},
		{
			"sampler":0,
			"source":1
		},
		{
			"sampler":0,
			"source":2
		},
		{
			"sampler":0,
			"source":3
		},
		{
			"sampler":0,
			"source":4
		},
		{
			"sampler":0,
			"source":5
		},
		{
			"sampler":0,
			"source":6
		},
		{
			"sampler":0,
			"source":7
		},
		{
			"sampler":0,
			"source":8
		}
	],
	"images":[
		{
			"mimeType":"image/png",
			"name":"y",
			"uri":"y.png"
		},
		{
			"mimeType":"image/png",
			"name":"skydome",
			"uri":"skydome.png"
		},
		{
			"mimeType":"image/png",
			"name":"body",
			"uri":"body.png"
		},
		{
			"mimeType":"image/png",
			"name":"frameUV",
			"uri":"frameUV.png"
		},
		{
			"mimeType":"image/png",
			"name":"frameUV",
			"uri":"frameUV-1.png"
		},
		{
			"mimeType":"image/png",
			"name":"frameUV",
			"uri":"frameUV-2.png"
		},
		{
			"mimeType":"image/png",
			"name":"propellerUV",
			"uri":"propellerUV.png"
		},
		{
			"mimeType":"image/png",
			"name":"propellerUV",
			"uri":"propellerUV-1.png"
		},
		{
			"mimeType":"image/png",
			"name":"propellerUV",
			"uri":"propellerUV-2.png"
		}
	],
	"accessors":[
		{
			"bufferView":0,
			"componentType":5126,
			"count":884,
			"max":[
				2.692039966583252,
				0.8072949647903442,
				2.6917338371276855
			],
			"min":[
				-2.692625045776367,
				-0.8089380264282227,
				-2.6929306983947754
			],
			"type":"VEC3"
		},
		{
			"bufferView":1,
			"componentType":5126,
			"count":884,
			"type":"VEC3"
		},
		{
			"bufferView":2,
			"componentType":5126,
			"count":884,
			"type":"VEC2"
		},
		{
			"bufferView":3,
			"componentType":5123,
			"count":2700,
			"type":"SCALAR"
		},
		{
			"bufferView":4,
			"componentType":5126,
			"count":468,
			"max":[
				-1.7641441822052002,
				0.764822244644165,
				-1.418168306350708
			],
			"min":[
				-8.691761016845703,
				-0.7585543394088745,
				-8.345788955688477
			],
			"type":"VEC3"
		},
		{
			"bufferView":5,
			"componentType":5126,
			"count":468,
			"type":"VEC3"
		},
		{
			"bufferView":6,
			"componentType":5126,
			"count":468,
			"type":"VEC2"
		},
		{
			"bufferView":7,
			"componentType":5123,
			"count":1176,
			"type":"SCALAR"
		},
		{
			"bufferView":8,
			"componentType":5126,
			"count":219,
			"max":[
				6.482752799987793,
				2.162215232849121,
				2.0420281887054443
			],
			"min":[
				-5.986676216125488,
				-1.6444172859191895,
				-2.0420289039611816
			],
			"type":"VEC3"
		},
		{
			"bufferView":9,
			"componentType":5126,
			"count":219,
			"type":"VEC3"
		},
		{
			"bufferView":10,
			"componentType":5126,
			"count":219,
			"type":"VEC2"
		},
		{
			"bufferView":11,
			"componentType":5123,
			"count":576,
			"type":"SCALAR"
		},
		{
			"bufferView":12,
			"componentType":5126,
			"count":468,
			"max":[
				-1.760646104812622,
				0.764822244644165,
				8.349212646484375
			],
			"min":[
				-8.68826675415039,
				-0.7585543394088745,
				1.4215953350067139
			],
			"type":"VEC3"
		},
		{
			"bufferView":13,
			"componentType":5126,
			"count":468,
			"type":"VEC3"
		},
		{
			"bufferView":14,
			"componentType":5126,
			"count":468,
			"type":"VEC2"
		},
		{
			"bufferView":15,
			"componentType":5123,
			"count":1176,
			"type":"SCALAR"
		},
		{
			"bufferView":16,
			"componentType":5126,
			"count":468,
			"max":[
				8.906888961791992,
				0.764822244644165,
				-1.421644926071167
			],
			"min":[
				1.9792680740356445,
				-0.7585543394088745,
				-8.349261283874512
			],
			"type":"VEC3"
		},
		{
			"bufferView":17,
			"componentType":5126,
			"count":468,
			"type":"VEC3"
		},
		{
			"bufferView":18,
			"componentType":5126,
			"count":468,
			"type":"VEC2"
		},
		{
			"bufferView":19,
			"componentType":5123,
			"count":1176,
			"type":"SCALAR"
		},
		{
			"bufferView":20,
			"componentType":5126,
			"count":468,
			"max":[
				8.910346031188965,
				0.764822244644165,
				8.34578800201416
			],
			"min":[
				1.9827289581298828,
				-0.7585543394088745,
				1.4181675910949707
			],
			"type":"VEC3"
		},
		{
			"bufferView":21,
			"componentType":5126,
			"count":468,
			"type":"VEC3"
		},
		{
			"bufferView":22,
			"componentType":5126,
			"count":468,
			"type":"VEC2"
		},
		{
			"bufferView":23,
			"componentType":5123,
			"count":1176,
			"type":"SCALAR"
		},
		{
			"bufferView":24,
			"componentType":5126,
			"count":881,
			"max":[
				2.6927833557128906,
				0.8072949051856995,
				2.6930923461914062
			],
			"min":[
				-2.6922082901000977,
				-0.8089380860328674,
				-2.691899538040161
			],
			"type":"VEC3"
		},
		{
			"bufferView":25,
			"componentType":5126,
			"count":881,
			"type":"VEC3"
		},
		{
			"bufferView":26,
			"componentType":5126,
			"count":881,
			"type":"VEC2"
		},
		{
			"bufferView":27,
			"componentType":5123,
			"count":2700,
			"type":"SCALAR"
		},
		{
			"bufferView":28,
			"componentType":5126,
			"count":881,
			"max":[
				2.6931076049804688,
				0.8072948455810547,
				2.6922218799591064
			],
			"min":[
				-2.691906452178955,
				-0.8089382648468018,
				-2.69279146194458
			],
			"type":"VEC3"
		},
		{
			"bufferView":29,
			"componentType":5126,
			"count":881,
			"type":"VEC3"
		},
		{
			"bufferView":30,
			"componentType":5126,
			"count":881,
			"type":"VEC2"
		},
		{
			"bufferView":31,
			"componentType":5123,
			"count":2700,
			"type":"SCALAR"
		},
		{
			"bufferView":32,
			"componentType":5126,
			"count":884,
			"max":[
				2.6916494369506836,
				0.8072949051856995,
				2.6925430297851562
			],
			"min":[
				-2.6928486824035645,
				-0.8089380860328674,
				-2.6919546127319336
			],
			"type":"VEC3"
		},
		{
			"bufferView":33,
			"componentType":5126,
			"count":884,
			"type":"VEC3"
		},
		{
			"bufferView":34,
			"componentType":5126,
			"count":884,
			"type":"VEC2"
		},
		{
			"bufferView":35,
			"componentType":5123,
			"count":2700,
			"type":"SCALAR"
		}
	],
	"bufferViews":[
		{
			"buffer":0,
			"byteLength":10608,
			"byteOffset":0,
			"target":34962
		},
		{
			"buffer":0,
			"byteLength":10608,
			"byteOffset":10608,
			"target":34962
		},
		{
			"buffer":0,
			"byteLength":7072,
			"byteOffset":21216,
			"target":34962
		},
		{
			"buffer":0,
			"byteLength":5400,
			"byteOffset":28288,
			"target":34963
		},
		{
			"buffer":0,
			"byteLength":5616,
			"byteOffset":33688,
			"target":34962
		},
		{
			"buffer":0,
			"byteLength":5616,
			"byteOffset":39304,
			"target":34962
		},
		{
			"buffer":0,
			"byteLength":3744,
			"byteOffset":44920,
			"target":34962
		},
		{
			"buffer":0,
			"byteLength":2352,
			"byteOffset":48664,
			"target":34963
		},
		{
			"buffer":0,
			"byteLength":2628,
			"byteOffset":51016,
			"target":34962
		},
		{
			"buffer":0,
			"byteLength":2628,
			"byteOffset":53644,
			"target":34962
		},
		{
			"buffer":0,
			"byteLength":1752,
			"byteOffset":56272,
			"target":34962
		},
		{
			"buffer":0,
			"byteLength":1152,
			"byteOffset":58024,
			"target":34963
		},
		{
			"buffer":0,
			"byteLength":5616,
			"byteOffset":59176,
			"target":34962
		},
		{
			"buffer":0,
			"byteLength":5616,
			"byteOffset":64792,
			"target":34962
		},
		{
			"buffer":0,
			"byteLength":3744,
			"byteOffset":70408,
			"target":34962
		},
		{
			"buffer":0,
			"byteLength":2352,
			"byteOffset":74152,
			"target":34963
		},
		{
			"buffer":0,
			"byteLength":5616,
			"byteOffset":76504,
			"target":34962
		},
		{
			"buffer":0,
			"byteLength":5616,
			"byteOffset":82120,
			"target":34962
		},
		{
			"buffer":0,
			"byteLength":3744,
			"byteOffset":87736,
			"target":34962
		},
		{
			"buffer":0,
			"byteLength":2352,
			"byteOffset":91480,
			"target":34963
		},
		{
			"buffer":0,
			"byteLength":5616,
			"byteOffset":93832,
			"target":34962
		},
		{
			"buffer":0,
			"byteLength":5616,
			"byteOffset":99448,
			"target":34962
		},
		{
			"buffer":0,
			"byteLength":3744,
			"byteOffset":105064,
			"target":34962
		},
		{
			"buffer":0,
			"byteLength":2352,
			"byteOffset":108808,
			"target":34963
		},
		{
			"buffer":0,
			"byteLength":10572,
			"byteOffset":111160,
			"target":34962
		},
		{
			"buffer":0,
			"byteLength":10572,
			"byteOffset":121732,
			"target":34962
		},
		{
			"buffer":0,
			"byteLength":7048,
			"byteOffset":132304,
			"target":34962
		},
		{
			"buffer":0,
			"byteLength":5400,
			"byteOffset":139352,
			"target":34963
		},
		{
			"buffer":0,
			"byteLength":10572,
			"byteOffset":144752,
			"target":34962
		},
		{
			"buffer":0,
			"byteLength":10572,
			"byteOffset":155324,
			"target":34962
		},
		{
			"buffer":0,
			"byteLength":7048,
			"byteOffset":165896,
			"target":34962
		},
		{
			"buffer":0,
			"byteLength":5400,
			"byteOffset":172944,
			"target":34963
		},
		{
			"buffer":0,
			"byteLength":10608,
			"byteOffset":178344,
			"target":34962
		},
		{
			"buffer":0,
			"byteLength":10608,
			"byteOffset":188952,
			"target":34962
		},
		{
			"buffer":0,
			"byteLength":7072,
			"byteOffset":199560,
			"target":34962
		},
		{
			"buffer":0,
			"byteLength":5400,
			"byteOffset":206632,
			"target":34963
		}
	],
	"samplers":[
		{
			"magFilter":9729,
			"minFilter":9987
		}
	],
	"buffers":[
		{
			"byteLength":212032,
			"uri":"dolone.bin"
		}
	]
}
