{
	"asset":{
		"generator":"Khronos glTF Blender I/O v4.4.56",
		"version":"2.0"
	},
	"scene":0,
	"scenes":[
		{
			"name":"Scene",
			"nodes":[
				0
			]
		}
	],
	"nodes":[
		{
			"mesh":0,
			"name":"\u7403.014"
		}
	],
	"animations":[
		{
			"channels":[
				{
					"sampler":0,
					"target":{
						"node":0,
						"path":"translation"
					}
				},
				{
					"sampler":1,
					"target":{
						"node":0,
						"path":"rotation"
					}
				},
				{
					"sampler":2,
					"target":{
						"node":0,
						"path":"scale"
					}
				}
			],
			"name":"\u7403.014\u30a2\u30af\u30b7\u30e7\u30f3",
			"samplers":[
				{
					"input":36,
					"interpolation":"LINEAR",
					"output":37
				},
				{
					"input":36,
					"interpolation":"LINEAR",
					"output":38
				},
				{
					"input":36,
					"interpolation":"LINEAR",
					"output":39
				}
			]
		}
	],
	"materials":[
		{
			"doubleSided":true,
			"name":"\u30de\u30c6\u30ea\u30a2\u30eb.007",
			"pbrMetallicRoughness":{
				"baseColorTexture":{
					"index":0
				},
				"metallicFactor":0,
				"roughnessFactor":0.5
			}
		},
		{
			"doubleSided":true,
			"name":"\u30de\u30c6\u30ea\u30a2\u30eb.001",
			"pbrMetallicRoughness":{
				"baseColorTexture":{
					"index":1
				},
				"metallicFactor":0,
				"roughnessFactor":0.5
			}
		},
		{
			"doubleSided":true,
			"name":"\u30de\u30c6\u30ea\u30a2\u30eb.003",
			"pbrMetallicRoughness":{
				"baseColorTexture":{
					"index":2
				},
				"metallicFactor":0,
				"roughnessFactor":0.5
			}
		},
		{
			"doubleSided":true,
			"name":"\u30de\u30c6\u30ea\u30a2\u30eb",
			"pbrMetallicRoughness":{
				"baseColorTexture":{
					"index":3
				},
				"metallicFactor":0,
				"roughnessFactor":0.5
			}
		},
		{
			"doubleSided":true,
			"name":"\u30de\u30c6\u30ea\u30a2\u30eb.005",
			"pbrMetallicRoughness":{
				"baseColorTexture":{
					"index":4
				},
				"metallicFactor":0,
				"roughnessFactor":0.5
			}
		},
		{
			"doubleSided":true,
			"name":"\u30de\u30c6\u30ea\u30a2\u30eb.004",
			"pbrMetallicRoughness":{
				"baseColorTexture":{
					"index":5
				},
				"metallicFactor":0,
				"roughnessFactor":0.5
			}
		},
		{
			"doubleSided":true,
			"name":"\u30de\u30c6\u30ea\u30a2\u30eb.008",
			"pbrMetallicRoughness":{
				"baseColorTexture":{
					"index":6
				},
				"metallicFactor":0,
				"roughnessFactor":0.5
			}
		},
		{
			"doubleSided":true,
			"name":"\u30de\u30c6\u30ea\u30a2\u30eb.006",
			"pbrMetallicRoughness":{
				"baseColorTexture":{
					"index":7
				},
				"metallicFactor":0,
				"roughnessFactor":0.5
			}
		},
		{
			"doubleSided":true,
			"name":"\u30de\u30c6\u30ea\u30a2\u30eb.002",
			"pbrMetallicRoughness":{
				"baseColorTexture":{
					"index":8
				},
				"metallicFactor":0,
				"roughnessFactor":0.5
			}
		}
	],
	"meshes":[
		{
			"name":"\u7403.182",
			"primitives":[
				{
					"attributes":{
						"POSITION":0,
						"NORMAL":1,
						"TEXCOORD_0":2
					},
					"indices":3,
					"material":0
				},
				{
					"attributes":{
						"POSITION":4,
						"NORMAL":5,
						"TEXCOORD_0":6
					},
					"indices":7,
					"material":1
				},
				{
					"attributes":{
						"POSITION":8,
						"NORMAL":9,
						"TEXCOORD_0":10
					},
					"indices":11,
					"material":2
				},
				{
					"attributes":{
						"POSITION":12,
						"NORMAL":13,
						"TEXCOORD_0":14
					},
					"indices":15,
					"material":3
				},
				{
					"attributes":{
						"POSITION":16,
						"NORMAL":17,
						"TEXCOORD_0":18
					},
					"indices":19,
					"material":4
				},
				{
					"attributes":{
						"POSITION":20,
						"NORMAL":21,
						"TEXCOORD_0":22
					},
					"indices":23,
					"material":5
				},
				{
					"attributes":{
						"POSITION":24,
						"NORMAL":25,
						"TEXCOORD_0":26
					},
					"indices":27,
					"material":6
				},
				{
					"attributes":{
						"POSITION":28,
						"NORMAL":29,
						"TEXCOORD_0":30
					},
					"indices":31,
					"material":7
				},
				{
					"attributes":{
						"POSITION":32,
						"NORMAL":33,
						"TEXCOORD_0":34
					},
					"indices":35,
					"material":8
				}
			]
		}
	],
	"textures":[
		{
			"sampler":0,
			"source":0
		},
		{
			"sampler":0,
			"source":1
		},
		{
			"sampler":0,
			"source":2
		},
		{
			"sampler":0,
			"source":3
		},
		{
			"sampler":0,
			"source":4
		},
		{
			"sampler":0,
			"source":5
		},
		{
			"sampler":0,
			"source":6
		},
		{
			"sampler":0,
			"source":7
		},
		{
			"sampler":0,
			"source":8
		}
	],
	"images":[
		{
			"mimeType":"image/png",
			"name":"frameUV",
			"uri":"frameUV.png"
		},
		{
			"mimeType":"image/png",
			"name":"body",
			"uri":"body.png"
		},
		{
			"mimeType":"image/png",
			"name":"skydome",
			"uri":"skydome.png"
		},
		{
			"mimeType":"image/png",
			"name":"frameUV",
			"uri":"frameUV-1.png"
		},
		{
			"mimeType":"image/png",
			"name":"frameUV",
			"uri":"frameUV-2.png"
		},
		{
			"mimeType":"image/png",
			"name":"y",
			"uri":"y.png"
		},
		{
			"mimeType":"image/png",
			"name":"propellerUV",
			"uri":"propellerUV.png"
		},
		{
			"mimeType":"image/png",
			"name":"propellerUV",
			"uri":"propellerUV-1.png"
		},
		{
			"mimeType":"image/png",
			"name":"propellerUV",
			"uri":"propellerUV-2.png"
		}
	],
	"accessors":[
		{
			"bufferView":0,
			"componentType":5126,
			"count":468,
			"max":[
				8.830810546875,
				0.7584786415100098,
				8.34579849243164
			],
			"min":[
				1.9031935930252075,
				-0.7648979425430298,
				1.4181782007217407
			],
			"type":"VEC3"
		},
		{
			"bufferView":1,
			"componentType":5126,
			"count":468,
			"type":"VEC3"
		},
		{
			"bufferView":2,
			"componentType":5126,
			"count":468,
			"type":"VEC2"
		},
		{
			"bufferView":3,
			"componentType":5123,
			"count":1176,
			"type":"SCALAR"
		},
		{
			"bufferView":4,
			"componentType":5126,
			"count":219,
			"max":[
				6.403217315673828,
				2.155871629714966,
				2.042038679122925
			],
			"min":[
				-6.066211700439453,
				-1.6507608890533447,
				-2.042018413543701
			],
			"type":"VEC3"
		},
		{
			"bufferView":5,
			"componentType":5126,
			"count":219,
			"type":"VEC3"
		},
		{
			"bufferView":6,
			"componentType":5126,
			"count":219,
			"type":"VEC2"
		},
		{
			"bufferView":7,
			"componentType":5123,
			"count":576,
			"type":"SCALAR"
		},
		{
			"bufferView":8,
			"componentType":5126,
			"count":468,
			"max":[
				-1.8436795473098755,
				0.7584786415100098,
				-1.418157696723938
			],
			"min":[
				-8.771296501159668,
				-0.7648979425430298,
				-8.345778465270996
			],
			"type":"VEC3"
		},
		{
			"bufferView":9,
			"componentType":5126,
			"count":468,
			"type":"VEC3"
		},
		{
			"bufferView":10,
			"componentType":5126,
			"count":468,
			"type":"VEC2"
		},
		{
			"bufferView":11,
			"componentType":5123,
			"count":1176,
			"type":"SCALAR"
		},
		{
			"bufferView":12,
			"componentType":5126,
			"count":468,
			"max":[
				-1.8401814699172974,
				0.7584786415100098,
				8.349223136901855
			],
			"min":[
				-8.767802238464355,
				-0.7648979425430298,
				1.4216059446334839
			],
			"type":"VEC3"
		},
		{
			"bufferView":13,
			"componentType":5126,
			"count":468,
			"type":"VEC3"
		},
		{
			"bufferView":14,
			"componentType":5126,
			"count":468,
			"type":"VEC2"
		},
		{
			"bufferView":15,
			"componentType":5123,
			"count":1176,
			"type":"SCALAR"
		},
		{
			"bufferView":16,
			"componentType":5126,
			"count":468,
			"max":[
				8.827353477478027,
				0.7584786415100098,
				-1.421634316444397
			],
			"min":[
				1.8997327089309692,
				-0.7648979425430298,
				-8.349250793457031
			],
			"type":"VEC3"
		},
		{
			"bufferView":17,
			"componentType":5126,
			"count":468,
			"type":"VEC3"
		},
		{
			"bufferView":18,
			"componentType":5126,
			"count":468,
			"type":"VEC2"
		},
		{
			"bufferView":19,
			"componentType":5123,
			"count":1176,
			"type":"SCALAR"
		},
		{
			"bufferView":20,
			"componentType":5126,
			"count":884,
			"max":[
				-3.016688823699951,
				0.8081164956092834,
				-2.675394058227539
			],
			"min":[
				-8.393380165100098,
				-0.8081164956092834,
				-8.052085876464844
			],
			"type":"VEC3"
		},
		{
			"bufferView":21,
			"componentType":5126,
			"count":884,
			"type":"VEC3"
		},
		{
			"bufferView":22,
			"componentType":5126,
			"count":884,
			"type":"VEC2"
		},
		{
			"bufferView":23,
			"componentType":5123,
			"count":2700,
			"type":"SCALAR"
		},
		{
			"bufferView":24,
			"componentType":5126,
			"count":881,
			"max":[
				8.61557388305664,
				0.8081164360046387,
				8.055707931518555
			],
			"min":[
				3.231637954711914,
				-0.8081165552139282,
				2.671772003173828
			],
			"type":"VEC3"
		},
		{
			"bufferView":25,
			"componentType":5126,
			"count":881,
			"type":"VEC3"
		},
		{
			"bufferView":26,
			"componentType":5126,
			"count":881,
			"type":"VEC2"
		},
		{
			"bufferView":27,
			"componentType":5123,
			"count":2700,
			"type":"SCALAR"
		},
		{
			"bufferView":28,
			"componentType":5126,
			"count":881,
			"max":[
				8.61636734008789,
				0.8081164360046387,
				-2.6709771156311035
			],
			"min":[
				3.233354091644287,
				-0.8081165552139282,
				-8.053991317749023
			],
			"type":"VEC3"
		},
		{
			"bufferView":29,
			"componentType":5126,
			"count":881,
			"type":"VEC3"
		},
		{
			"bufferView":30,
			"componentType":5126,
			"count":881,
			"type":"VEC2"
		},
		{
			"bufferView":31,
			"componentType":5123,
			"count":2700,
			"type":"SCALAR"
		},
		{
			"bufferView":32,
			"componentType":5126,
			"count":884,
			"max":[
				-3.0139682292938232,
				0.8081164360046387,
				8.054717063903809
			],
			"min":[
				-8.39847469329834,
				-0.8081165552139282,
				2.6702115535736084
			],
			"type":"VEC3"
		},
		{
			"bufferView":33,
			"componentType":5126,
			"count":884,
			"type":"VEC3"
		},
		{
			"bufferView":34,
			"componentType":5126,
			"count":884,
			"type":"VEC2"
		},
		{
			"bufferView":35,
			"componentType":5123,
			"count":2700,
			"type":"SCALAR"
		},
		{
			"bufferView":36,
			"componentType":5126,
			"count":1,
			"max":[
				0.20833333333333334
			],
			"min":[
				0.20833333333333334
			],
			"type":"SCALAR"
		},
		{
			"bufferView":37,
			"componentType":5126,
			"count":1,
			"type":"VEC3"
		},
		{
			"bufferView":38,
			"componentType":5126,
			"count":1,
			"type":"VEC4"
		},
		{
			"bufferView":39,
			"componentType":5126,
			"count":1,
			"type":"VEC3"
		}
	],
	"bufferViews":[
		{
			"buffer":0,
			"byteLength":5616,
			"byteOffset":0,
			"target":34962
		},
		{
			"buffer":0,
			"byteLength":5616,
			"byteOffset":5616,
			"target":34962
		},
		{
			"buffer":0,
			"byteLength":3744,
			"byteOffset":11232,
			"target":34962
		},
		{
			"buffer":0,
			"byteLength":2352,
			"byteOffset":14976,
			"target":34963
		},
		{
			"buffer":0,
			"byteLength":2628,
			"byteOffset":17328,
			"target":34962
		},
		{
			"buffer":0,
			"byteLength":2628,
			"byteOffset":19956,
			"target":34962
		},
		{
			"buffer":0,
			"byteLength":1752,
			"byteOffset":22584,
			"target":34962
		},
		{
			"buffer":0,
			"byteLength":1152,
			"byteOffset":24336,
			"target":34963
		},
		{
			"buffer":0,
			"byteLength":5616,
			"byteOffset":25488,
			"target":34962
		},
		{
			"buffer":0,
			"byteLength":5616,
			"byteOffset":31104,
			"target":34962
		},
		{
			"buffer":0,
			"byteLength":3744,
			"byteOffset":36720,
			"target":34962
		},
		{
			"buffer":0,
			"byteLength":2352,
			"byteOffset":40464,
			"target":34963
		},
		{
			"buffer":0,
			"byteLength":5616,
			"byteOffset":42816,
			"target":34962
		},
		{
			"buffer":0,
			"byteLength":5616,
			"byteOffset":48432,
			"target":34962
		},
		{
			"buffer":0,
			"byteLength":3744,
			"byteOffset":54048,
			"target":34962
		},
		{
			"buffer":0,
			"byteLength":2352,
			"byteOffset":57792,
			"target":34963
		},
		{
			"buffer":0,
			"byteLength":5616,
			"byteOffset":60144,
			"target":34962
		},
		{
			"buffer":0,
			"byteLength":5616,
			"byteOffset":65760,
			"target":34962
		},
		{
			"buffer":0,
			"byteLength":3744,
			"byteOffset":71376,
			"target":34962
		},
		{
			"buffer":0,
			"byteLength":2352,
			"byteOffset":75120,
			"target":34963
		},
		{
			"buffer":0,
			"byteLength":10608,
			"byteOffset":77472,
			"target":34962
		},
		{
			"buffer":0,
			"byteLength":10608,
			"byteOffset":88080,
			"target":34962
		},
		{
			"buffer":0,
			"byteLength":7072,
			"byteOffset":98688,
			"target":34962
		},
		{
			"buffer":0,
			"byteLength":5400,
			"byteOffset":105760,
			"target":34963
		},
		{
			"buffer":0,
			"byteLength":10572,
			"byteOffset":111160,
			"target":34962
		},
		{
			"buffer":0,
			"byteLength":10572,
			"byteOffset":121732,
			"target":34962
		},
		{
			"buffer":0,
			"byteLength":7048,
			"byteOffset":132304,
			"target":34962
		},
		{
			"buffer":0,
			"byteLength":5400,
			"byteOffset":139352,
			"target":34963
		},
		{
			"buffer":0,
			"byteLength":10572,
			"byteOffset":144752,
			"target":34962
		},
		{
			"buffer":0,
			"byteLength":10572,
			"byteOffset":155324,
			"target":34962
		},
		{
			"buffer":0,
			"byteLength":7048,
			"byteOffset":165896,
			"target":34962
		},
		{
			"buffer":0,
			"byteLength":5400,
			"byteOffset":172944,
			"target":34963
		},
		{
			"buffer":0,
			"byteLength":10608,
			"byteOffset":178344,
			"target":34962
		},
		{
			"buffer":0,
			"byteLength":10608,
			"byteOffset":188952,
			"target":34962
		},
		{
			"buffer":0,
			"byteLength":7072,
			"byteOffset":199560,
			"target":34962
		},
		{
			"buffer":0,
			"byteLength":5400,
			"byteOffset":206632,
			"target":34963
		},
		{
			"buffer":0,
			"byteLength":4,
			"byteOffset":212032
		},
		{
			"buffer":0,
			"byteLength":12,
			"byteOffset":212036
		},
		{
			"buffer":0,
			"byteLength":16,
			"byteOffset":212048
		},
		{
			"buffer":0,
			"byteLength":12,
			"byteOffset":212064
		}
	],
	"samplers":[
		{
			"magFilter":9729,
			"minFilter":9987
		}
	],
	"buffers":[
		{
			"byteLength":212076,
			"uri":"dolone.bin"
		}
	]
}
