# Blender 4.4.1
# www.blender.org
mtllib doroso.mtl
o 立方体.013
v -0.196026 1.071635 -7.868229
v -0.196026 1.283099 -7.538096
v -0.196026 -1.784982 -6.038448
v 0.196026 1.071635 -7.868229
v 0.196026 1.283099 -7.538096
v 0.196026 -1.784982 -6.038448
v 0.196026 -1.573518 -5.708314
v -0.196026 -1.573518 -5.708314
v -0.200628 1.095383 0.764657
v -0.200628 1.095382 3.784812
v -0.200628 1.496638 0.764657
v -0.200628 1.496638 3.784812
v 0.200628 1.095383 0.764657
v 0.200628 1.095382 3.784812
v 0.200628 1.496638 0.764657
v 0.200628 1.496638 3.784812
v -0.196026 -1.652588 7.017221
v -0.196026 -1.652588 6.625169
v -0.196026 1.652588 7.017221
v 0.196026 -1.652588 7.017221
v 0.196026 -1.652588 6.625169
v 0.196026 1.652588 7.017221
v 0.196026 1.652588 6.625169
v -0.196026 1.652588 6.625169
v -0.196026 -0.588130 5.369938
v -0.196026 -0.241615 5.186546
v -0.196026 0.218191 6.893460
v 0.196026 -0.588130 5.369938
v 0.196026 -0.241615 5.186546
v 0.196026 0.218191 6.893460
v 0.196026 0.564705 6.710068
v -0.196026 0.564705 6.710068
v -0.200628 0.255780 1.709138
v -0.200628 0.633310 1.709138
v -0.200628 0.255780 2.829803
v 0.200628 0.255780 1.709138
v 0.200628 0.633310 1.709138
v 0.200628 0.255780 2.829803
v 0.200628 0.633310 2.829803
v -0.200628 0.633310 2.829803
v -0.200628 -0.659950 1.734058
v -0.200628 -0.659950 1.372452
v -0.200628 0.657702 1.734058
v 0.200628 -0.659950 1.734058
v 0.200628 -0.659950 1.372452
v 0.200628 0.657702 1.734058
v 0.200628 0.657702 1.372452
v -0.200628 0.657702 1.372452
v -0.200628 -0.659950 3.183919
v -0.200628 -0.659950 2.786103
v -0.200628 0.657702 3.183918
v 0.200628 -0.659950 3.183919
v 0.200628 -0.659950 2.786103
v 0.200628 0.657702 3.183918
v 0.200628 0.657702 2.786103
v -0.200628 0.657702 2.786103
v -0.200628 -0.651052 1.709139
v -0.200628 -0.249655 1.709139
v -0.200628 -0.651052 2.829803
v 0.200628 -0.651052 1.709139
v 0.200628 -0.249655 1.709139
v 0.200628 -0.651052 2.829803
v 0.200628 -0.249655 2.829803
v -0.200628 -0.249655 2.829803
v -0.200628 -1.510077 0.948902
v -0.200628 -1.510077 0.547646
v -0.200628 1.510077 0.948902
v 0.200628 -1.510077 0.948902
v 0.200628 -1.510077 0.547646
v 0.200628 1.510077 0.948902
v 0.200628 1.510077 0.547646
v -0.200628 1.510077 0.547646
v -0.200628 -1.510077 3.968343
v -0.200628 -1.510077 3.567087
v -0.200628 1.510077 3.968343
v 0.200628 -1.510077 3.968343
v 0.200628 -1.510077 3.567087
v 0.200628 1.510077 3.968343
v 0.200628 1.510077 3.567087
v -0.200628 1.510077 3.567087
v -0.200628 -1.504611 0.764657
v -0.200628 -1.103356 0.764657
v -0.200628 -1.504611 3.784812
v 0.200628 -1.504611 0.764657
v 0.200628 -1.103356 0.764657
v 0.200628 -1.504611 3.784812
v 0.200628 -1.103356 3.784812
v -0.200628 -1.103356 3.784812
v -0.196026 -0.196026 -3.273257
v -0.196026 0.196026 -3.273257
v -0.196026 -0.196026 -0.397244
v 0.196026 -0.196026 -3.273257
v 0.196026 0.196026 -3.273257
v 0.196026 -0.196026 -0.397244
v 0.196026 0.196026 -0.397244
v -0.196026 0.196026 -0.397244
v -0.196026 0.368806 -6.051677
v -0.196026 0.748712 -6.148509
v -0.196026 0.698176 -4.759442
v 0.196026 0.368806 -6.051677
v 0.196026 0.748712 -6.148509
v 0.196026 0.698176 -4.759442
v 0.196026 1.078082 -4.856275
v -0.196026 1.078082 -4.856275
vn -0.0000 0.8421 -0.5394
vn -1.0000 -0.0000 -0.0000
vn -0.0000 -0.5394 -0.8421
vn 1.0000 -0.0000 -0.0000
vn -0.0000 -0.8421 0.5394
vn -0.0000 0.5394 0.8421
vn -0.0000 1.0000 -0.0000
vn -0.0000 -1.0000 -0.0000
vn -0.0000 -0.0000 -1.0000
vn -0.0000 -0.0000 1.0000
vn -0.0000 -0.4678 -0.8838
vn -0.0000 -0.8838 0.4678
vn -0.0000 0.4678 0.8838
vn -0.0000 0.8838 -0.4678
vn -0.0000 -0.2470 -0.9690
vn -0.0000 -0.9690 0.2470
vn -0.0000 0.2470 0.9690
vn -0.0000 0.9690 -0.2470
vt 0.209581 0.511636
vt 0.209581 0.608710
vt 0.112506 0.608710
vt 0.112506 0.511636
vt 0.403730 0.608710
vt 0.403730 0.705785
vt 0.306655 0.705785
vt 0.306655 0.608710
vt 0.112506 0.705785
vt 0.015432 0.705785
vt 0.015432 0.608710
vt 0.209581 0.705785
vt 0.209581 0.802859
vt 0.112506 0.802859
vt 0.607320 0.761834
vt 0.607320 0.819154
vt 0.550000 0.819154
vt 0.550000 0.761834
vt 0.492681 0.819154
vt 0.492681 0.761834
vt 0.435361 0.819154
vt 0.435361 0.761834
vt 0.378041 0.819154
vt 0.378041 0.761834
vt 0.492681 0.704514
vt 0.435361 0.704514
vt 0.492681 0.876474
vt 0.435361 0.876474
vt 0.317463 0.216870
vt 0.216844 0.216870
vt 0.216844 0.116251
vt 0.317463 0.116251
vt 0.216844 0.418108
vt 0.116225 0.418108
vt 0.116225 0.317489
vt 0.216844 0.317489
vt 0.116225 0.116251
vt 0.116225 0.015632
vt 0.216844 0.015631
vt 0.116225 0.216870
vt 0.015606 0.216870
vt 0.015606 0.116251
vt 0.828164 0.668815
vt 0.766893 0.668815
vt 0.766893 0.607544
vt 0.828164 0.607544
vt 0.766893 0.791357
vt 0.705622 0.791357
vt 0.705622 0.730086
vt 0.766893 0.730086
vt 0.705622 0.607544
vt 0.705622 0.546273
vt 0.766893 0.546273
vt 0.705622 0.668815
vt 0.644351 0.668815
vt 0.644351 0.607544
vt 0.609434 0.984595
vt 0.609434 0.941943
vt 0.652086 0.941943
vt 0.652086 0.984595
vt 0.524131 0.941943
vt 0.524131 0.899292
vt 0.566782 0.899292
vt 0.566782 0.941943
vt 0.652086 0.899292
vt 0.694738 0.899292
vt 0.694738 0.941943
vt 0.609434 0.899292
vt 0.609434 0.856640
vt 0.652086 0.856640
vt 0.675042 0.180303
vt 0.739526 0.180303
vt 0.739526 0.244786
vt 0.675042 0.244786
vt 0.610559 0.309270
vt 0.675042 0.309270
vt 0.675042 0.373753
vt 0.610559 0.373753
vt 0.739526 0.373753
vt 0.739526 0.438237
vt 0.675042 0.438237
vt 0.739526 0.309270
vt 0.804009 0.309270
vt 0.804009 0.373753
vt 0.641322 0.276055
vt 0.576403 0.276055
vt 0.576403 0.211136
vt 0.641322 0.211136
vt 0.706240 0.146218
vt 0.641322 0.146218
vt 0.641322 0.081300
vt 0.706240 0.081300
vt 0.576403 0.081300
vt 0.576403 0.016382
vt 0.641322 0.016382
vt 0.576403 0.146218
vt 0.511485 0.146218
vt 0.511485 0.081300
vt 0.881097 0.538307
vt 0.837411 0.538307
vt 0.837411 0.494620
vt 0.881097 0.494620
vt 0.924783 0.450934
vt 0.881097 0.450934
vt 0.881097 0.407248
vt 0.924783 0.407248
vt 0.837411 0.407248
vt 0.837411 0.363562
vt 0.881097 0.363562
vt 0.837411 0.450934
vt 0.793725 0.450934
vt 0.793725 0.407248
vt 0.284492 0.575498
vt 0.284492 0.478112
vt 0.381877 0.478112
vt 0.381877 0.575498
vt 0.479263 0.672883
vt 0.479263 0.575498
vt 0.576648 0.575498
vt 0.576648 0.672883
vt 0.576648 0.478112
vt 0.674033 0.478112
vt 0.674033 0.575498
vt 0.479263 0.478112
vt 0.479263 0.380727
vt 0.576648 0.380727
vt 0.350437 0.055597
vt 0.447823 0.055597
vt 0.447823 0.152982
vt 0.350437 0.152982
vt 0.253052 0.250367
vt 0.350437 0.250367
vt 0.350437 0.347753
vt 0.253052 0.347753
vt 0.447823 0.347753
vt 0.447823 0.445138
vt 0.350437 0.445138
vt 0.447823 0.250367
vt 0.545208 0.250367
vt 0.545208 0.347753
vt 0.852510 0.244999
vt 0.795191 0.244999
vt 0.795191 0.187679
vt 0.852510 0.187679
vt 0.909830 0.130359
vt 0.852510 0.130359
vt 0.852510 0.073039
vt 0.909830 0.073039
vt 0.795191 0.073039
vt 0.795191 0.015719
vt 0.852510 0.015719
vt 0.795191 0.130359
vt 0.737871 0.130359
vt 0.737871 0.073039
vt 0.746692 0.827527
vt 0.802222 0.827527
vt 0.802222 0.883056
vt 0.746692 0.883056
vt 0.802222 0.716468
vt 0.857751 0.716468
vt 0.857751 0.771998
vt 0.802222 0.771998
vt 0.857751 0.883056
vt 0.857751 0.938586
vt 0.802222 0.938586
vt 0.857751 0.827527
vt 0.913281 0.827527
vt 0.913281 0.883056
vt 0.240934 0.933985
vt 0.240934 0.884218
vt 0.290701 0.884218
vt 0.290701 0.933985
vt 0.141400 0.884218
vt 0.141400 0.834451
vt 0.191167 0.834451
vt 0.191167 0.884218
vt 0.290701 0.834451
vt 0.340467 0.834451
vt 0.340467 0.884218
vt 0.240934 0.834451
vt 0.240934 0.784684
vt 0.290701 0.784684
s 0
usemtl マテリアル.002
f 2/1/1 5/2/1 4/3/1 1/4/1
f 1/5/2 3/6/2 8/7/2 2/8/2
f 4/3/3 6/9/3 3/10/3 1/11/3
f 5/2/4 7/12/4 6/9/4 4/3/4
f 7/12/5 8/13/5 3/14/5 6/9/5
f 2/8/6 8/7/6 7/12/6 5/2/6
f 9/15/2 10/16/2 12/17/2 11/18/2
f 11/18/7 12/17/7 16/19/7 15/20/7
f 15/20/4 16/19/4 14/21/4 13/22/4
f 13/22/8 14/21/8 10/23/8 9/24/8
f 11/25/9 15/20/9 13/22/9 9/26/9
f 16/19/10 12/27/10 10/28/10 14/21/10
f 18/29/8 21/30/8 20/31/8 17/32/8
f 17/33/2 19/34/2 24/35/2 18/36/2
f 20/31/10 22/37/10 19/38/10 17/39/10
f 21/30/4 23/40/4 22/37/4 20/31/4
f 23/40/7 24/41/7 19/42/7 22/37/7
f 18/36/9 24/35/9 23/40/9 21/30/9
f 26/43/11 29/44/11 28/45/11 25/46/11
f 25/47/2 27/48/2 32/49/2 26/50/2
f 28/45/12 30/51/12 27/52/12 25/53/12
f 29/44/4 31/54/4 30/51/4 28/45/4
f 31/54/13 32/55/13 27/56/13 30/51/13
f 26/50/14 32/49/14 31/54/14 29/44/14
f 34/57/9 37/58/9 36/59/9 33/60/9
f 33/61/2 35/62/2 40/63/2 34/64/2
f 36/59/8 38/65/8 35/66/8 33/67/8
f 37/58/4 39/68/4 38/65/4 36/59/4
f 39/68/10 40/69/10 35/70/10 38/65/10
f 34/64/7 40/63/7 39/68/7 37/58/7
f 41/71/2 43/72/2 48/73/2 42/74/2
f 42/75/8 45/76/8 44/77/8 41/78/8
f 44/77/10 46/79/10 43/80/10 41/81/10
f 45/76/4 47/82/4 46/79/4 44/77/4
f 47/82/7 48/83/7 43/84/7 46/79/7
f 42/74/9 48/73/9 47/82/9 45/76/9
f 49/85/2 51/86/2 56/87/2 50/88/2
f 50/89/8 53/90/8 52/91/8 49/92/8
f 52/91/10 54/93/10 51/94/10 49/95/10
f 53/90/4 55/96/4 54/93/4 52/91/4
f 55/96/7 56/97/7 51/98/7 54/93/7
f 50/88/9 56/87/9 55/96/9 53/90/9
f 57/99/2 59/100/2 64/101/2 58/102/2
f 58/103/9 61/104/9 60/105/9 57/106/9
f 60/105/8 62/107/8 59/108/8 57/109/8
f 61/104/4 63/110/4 62/107/4 60/105/4
f 63/110/10 64/111/10 59/112/10 62/107/10
f 58/102/7 64/101/7 63/110/7 61/104/7
f 65/113/2 67/114/2 72/115/2 66/116/2
f 66/117/8 69/118/8 68/119/8 65/120/8
f 68/119/10 70/121/10 67/122/10 65/123/10
f 69/118/4 71/124/4 70/121/4 68/119/4
f 71/124/7 72/125/7 67/126/7 70/121/7
f 66/116/9 72/115/9 71/124/9 69/118/9
f 73/127/2 75/128/2 80/129/2 74/130/2
f 74/131/8 77/132/8 76/133/8 73/134/8
f 76/133/10 78/135/10 75/136/10 73/137/10
f 77/132/4 79/138/4 78/135/4 76/133/4
f 79/138/7 80/139/7 75/140/7 78/135/7
f 74/130/9 80/129/9 79/138/9 77/132/9
f 81/141/2 83/142/2 88/143/2 82/144/2
f 82/145/9 85/146/9 84/147/9 81/148/9
f 84/147/8 86/149/8 83/150/8 81/151/8
f 85/146/4 87/152/4 86/149/4 84/147/4
f 87/152/10 88/153/10 83/154/10 86/149/10
f 82/144/7 88/143/7 87/152/7 85/146/7
f 90/155/9 93/156/9 92/157/9 89/158/9
f 89/159/2 91/160/2 96/161/2 90/162/2
f 92/157/8 94/163/8 91/164/8 89/165/8
f 93/156/4 95/166/4 94/163/4 92/157/4
f 95/166/10 96/167/10 91/168/10 94/163/10
f 90/162/7 96/161/7 95/166/7 93/156/7
f 98/169/15 101/170/15 100/171/15 97/172/15
f 97/173/2 99/174/2 104/175/2 98/176/2
f 100/171/16 102/177/16 99/178/16 97/179/16
f 101/170/4 103/180/4 102/177/4 100/171/4
f 103/180/17 104/181/17 99/182/17 102/177/17
f 98/176/18 104/175/18 103/180/18 101/170/18
