# Blender 4.4.1
# www.blender.org
mtllib goal.mtl
o Cube.004
v 1.000000 -0.998732 -0.170386
v -1.000000 -0.998731 -0.170386
v 1.000000 -0.998732 0.170386
v -1.000000 -0.998731 0.170386
v 1.000000 -0.695269 -0.170386
v -1.000000 -0.695268 -0.170386
v 1.000000 -0.695269 0.170386
v -1.000000 -0.695268 0.170386
v -0.697142 1.000000 -0.170386
v -0.697142 -1.000000 -0.170386
v -0.697142 1.000000 0.170386
v -0.697142 -1.000000 0.170386
v -1.000605 1.000000 -0.170386
v -1.000605 -1.000000 -0.170386
v -1.000605 1.000000 0.170386
v -1.000605 -1.000000 0.170386
v 1.000000 0.698268 -0.170386
v -1.000000 0.698268 -0.170386
v 1.000000 0.698268 0.170386
v -1.000000 0.698268 0.170386
v 1.000000 1.001732 -0.170386
v -1.000000 1.001732 -0.170386
v 1.000000 1.001732 0.170386
v -1.000000 1.001732 0.170386
v 1.011732 1.000000 -0.170386
v 1.011732 -1.000000 -0.170386
v 1.011732 1.000000 0.170386
v 1.011732 -1.000000 0.170386
v 0.708269 1.000000 -0.170386
v 0.708269 -1.000000 -0.170386
v 0.708269 1.000000 0.170386
v 0.708269 -1.000000 0.170386
v 0.002920 -0.591301 -0.170386
v -0.591304 -0.002169 -0.170386
v 0.002920 -0.591301 0.170386
v -0.591304 -0.002169 0.170386
v 0.092310 -0.501138 -0.170386
v -0.501914 0.087993 -0.170386
v 0.092310 -0.501138 0.170386
v -0.501914 0.087993 0.170386
v 0.087436 0.502466 -0.170386
v -0.501695 -0.091758 -0.170386
v 0.087436 0.502466 0.170386
v -0.501695 -0.091758 0.170386
v -0.002726 0.591856 -0.170386
v -0.591857 -0.002368 -0.170386
v -0.002726 0.591856 0.170386
v -0.591857 -0.002368 0.170386
v 0.502798 -0.087102 -0.170386
v -0.091426 0.502029 -0.170386
v 0.502798 -0.087102 0.170386
v -0.091426 0.502029 0.170386
v 0.592188 0.003061 -0.170386
v -0.002036 0.592192 -0.170386
v 0.592188 0.003061 0.170386
v -0.002036 0.592192 0.170386
v 0.595163 -0.000909 -0.170386
v 0.006032 -0.595133 -0.170386
v 0.595163 -0.000909 0.170386
v 0.006032 -0.595133 0.170386
v 0.505001 0.088480 -0.170386
v -0.084130 -0.505744 -0.170386
v 0.505001 0.088480 0.170386
v -0.084130 -0.505744 0.170386
vn 1.0000 -0.0000 -0.0000
vn -0.0000 -0.0000 1.0000
vn -0.0000 1.0000 -0.0000
vn -1.0000 -0.0000 -0.0000
vn -0.0000 -1.0000 -0.0000
vn -0.0000 -0.0000 -1.0000
vn 0.7101 -0.7041 -0.0000
vn 0.7041 0.7101 -0.0000
vn -0.7101 0.7041 -0.0000
vn -0.7041 -0.7101 -0.0000
vt 0.875000 0.500000
vt 0.625000 0.750000
vt 0.625000 0.500000
vt 0.375000 0.750000
vt 0.625000 1.000000
vt 0.375000 1.000000
vt 0.625000 0.000000
vt 0.375000 0.250000
vt 0.375000 0.000000
vt 0.375000 0.500000
vt 0.125000 0.750000
vt 0.125000 0.500000
vt 0.625000 0.250000
vt 0.875000 0.750000
s 1
usemtl マテリアル
f 5/1/1 3/2/1 1/3/1
f 4/4/2 7/5/2 8/6/2
f 7/7/3 6/8/3 8/9/3
f 2/10/4 8/11/4 6/12/4
f 1/3/5 4/4/5 2/10/5
f 5/13/6 2/10/6 6/8/6
f 5/1/1 7/14/1 3/2/1
f 4/4/2 3/2/2 7/5/2
f 7/7/3 5/13/3 6/8/3
f 2/10/4 4/4/4 8/11/4
f 1/3/5 3/2/5 4/4/5
f 5/13/6 1/3/6 2/10/6
usemtl マテリアル.001
f 13/1/3 11/2/3 9/3/3
f 11/2/2 16/6/2 12/4/2
f 15/7/4 14/8/4 16/9/4
f 10/10/5 16/11/5 14/12/5
f 9/3/1 12/4/1 10/10/1
f 13/13/6 10/10/6 14/8/6
f 21/1/1 19/2/1 17/3/1
f 19/2/2 24/6/2 20/4/2
f 23/7/3 22/8/3 24/9/3
f 18/10/4 24/11/4 22/12/4
f 17/3/5 20/4/5 18/10/5
f 21/13/6 18/10/6 22/8/6
f 29/1/3 27/2/3 25/3/3
f 27/2/2 32/6/2 28/4/2
f 31/7/4 30/8/4 32/9/4
f 26/10/5 32/11/5 30/12/5
f 25/3/1 28/4/1 26/10/1
f 29/13/6 26/10/6 30/8/6
f 13/1/3 15/14/3 11/2/3
f 11/2/2 15/5/2 16/6/2
f 15/7/4 13/13/4 14/8/4
f 10/10/5 12/4/5 16/11/5
f 9/3/1 11/2/1 12/4/1
f 13/13/6 9/3/6 10/10/6
f 21/1/1 23/14/1 19/2/1
f 19/2/2 23/5/2 24/6/2
f 23/7/3 21/13/3 22/8/3
f 18/10/4 20/4/4 24/11/4
f 17/3/5 19/2/5 20/4/5
f 21/13/6 17/3/6 18/10/6
f 29/1/3 31/14/3 27/2/3
f 27/2/2 31/5/2 32/6/2
f 31/7/4 29/13/4 30/8/4
f 26/10/5 28/4/5 32/11/5
f 25/3/1 27/2/1 28/4/1
f 29/13/6 25/3/6 26/10/6
usemtl マテリアル.002
f 37/1/7 35/2/7 33/3/7
f 36/4/2 39/5/2 40/6/2
f 39/7/8 38/8/8 40/9/8
f 34/10/9 40/11/9 38/12/9
f 34/10/10 35/2/10 36/4/10
f 37/13/6 34/10/6 38/8/6
f 37/1/7 39/14/7 35/2/7
f 36/4/2 35/2/2 39/5/2
f 39/7/8 37/13/8 38/8/8
f 34/10/9 36/4/9 40/11/9
f 34/10/10 33/3/10 35/2/10
f 37/13/6 33/3/6 34/10/6
usemtl マテリアル.003
f 45/1/8 43/2/8 41/3/8
f 43/2/2 48/6/2 44/4/2
f 47/7/9 46/8/9 48/9/9
f 46/12/10 44/4/10 48/11/10
f 41/3/7 44/4/7 42/10/7
f 45/13/6 42/10/6 46/8/6
f 49/3/7 55/14/7 51/2/7
f 52/4/2 55/5/2 56/6/2
f 55/7/8 54/8/8 56/9/8
f 50/10/9 56/11/9 54/12/9
f 50/10/10 51/2/10 52/4/10
f 54/8/6 49/3/6 50/10/6
f 61/1/8 59/2/8 57/3/8
f 59/2/2 64/6/2 60/4/2
f 63/7/9 62/8/9 64/9/9
f 62/12/10 60/4/10 64/11/10
f 57/3/7 60/4/7 58/10/7
f 62/8/6 57/3/6 58/10/6
f 45/1/8 47/14/8 43/2/8
f 43/2/2 47/5/2 48/6/2
f 47/7/9 45/13/9 46/8/9
f 46/12/10 42/10/10 44/4/10
f 41/3/7 43/2/7 44/4/7
f 45/13/6 41/3/6 42/10/6
f 49/3/7 53/1/7 55/14/7
f 52/4/2 51/2/2 55/5/2
f 55/7/8 53/13/8 54/8/8
f 50/10/9 52/4/9 56/11/9
f 50/10/10 49/3/10 51/2/10
f 54/8/6 53/13/6 49/3/6
f 61/1/8 63/14/8 59/2/8
f 59/2/2 63/5/2 64/6/2
f 63/7/9 61/13/9 62/8/9
f 62/12/10 58/10/10 60/4/10
f 57/3/7 59/2/7 60/4/7
f 62/8/6 61/13/6 57/3/6
