# Blender 4.4.1
# www.blender.org
mtllib outShell.mtl
o 外殻
v 12.258880 0.016609 -6.491622
v 12.258880 -0.016609 -6.491622
v 12.258880 0.016609 7.144866
v 12.258880 -0.016609 7.144866
v -12.258878 0.016609 -6.491622
v -12.258878 -0.016609 -6.491622
v -12.258878 0.016609 7.144866
v -12.258878 -0.016609 7.144866
v -12.273000 0.020433 7.097816
v -12.273000 8.998548 7.097816
v -12.273000 0.020433 6.958637
v -12.273000 8.998548 6.958637
v 12.273000 0.020433 7.097816
v 12.273000 8.998548 7.097816
v 12.273000 0.020433 6.958637
v 12.273000 8.998548 6.958637
v -12.239744 -0.027768 -6.282891
v -12.239744 14.408231 -6.282891
v -12.239744 -0.027768 -6.524878
v -12.239744 14.408231 -6.524878
v 12.239744 -0.027768 -6.282891
v 12.239744 14.408231 -6.282891
v 12.239744 -0.027768 -6.524878
v 12.239744 14.408231 -6.524878
v -12.199341 0.020135 7.235121
v -12.199341 12.643340 7.235121
v -12.199341 0.020135 -6.451733
v -12.199341 12.643340 -6.451733
v -12.000221 0.020135 7.235121
v -12.000221 12.643340 7.235121
v -12.000221 0.020135 -6.451733
v -12.000221 12.643340 -6.451733
vn -0.0000 1.0000 -0.0000
vn -0.0000 -0.0000 1.0000
vn -1.0000 -0.0000 -0.0000
vn -0.0000 -1.0000 -0.0000
vn 1.0000 -0.0000 -0.0000
vn -0.0000 -0.0000 -1.0000
vt 0.448113 0.093985
vt 0.364989 0.364757
vt 0.271165 0.270933
vt 0.541705 0.541937
vt 0.364757 0.364989
vt 0.000393 0.000160
vt 0.093985 0.094217
vt 0.000160 0.000393
vt 0.270933 0.271165
vt 0.187809 0.541937
vt 0.093985 0.448113
vt 0.094217 0.093985
vt 0.419136 0.605016
vt 0.355421 0.543216
vt 0.356379 0.542258
vt 0.418179 0.605973
vt 0.178270 0.720367
vt 0.241027 0.783125
vt 0.177312 0.721325
vt 0.240070 0.784082
vt 0.000161 0.898477
vt 0.000161 0.544173
vt 0.001118 0.543216
vt 0.418179 0.960276
vt 0.542258 0.356834
vt 0.644831 0.456077
vt 0.643166 0.457742
vt 0.543923 0.355169
vt 0.821503 0.279405
vt 0.720595 0.178497
vt 0.823168 0.277740
vt 0.722260 0.176832
vt 0.999839 0.101069
vt 0.999839 0.454412
vt 0.998175 0.456077
vt 0.543923 0.001826
vt 0.669076 0.458063
vt 0.544290 0.591241
vt 0.544290 0.458063
vt 0.669076 0.591241
vt 0.544290 0.593273
vt 0.669076 0.593273
vt 0.544290 0.726451
vt 0.669076 0.726451
vt 0.544290 0.728483
vt 0.542258 0.726451
vt 0.542258 0.593273
vt 0.671108 0.593273
vt 0.541937 0.187809
vt 0.541937 0.541705
vt 0.062918 0.961234
vt 0.417221 0.961234
vt 0.898931 0.000161
vt 0.545588 0.000161
vt 0.669076 0.728483
vt 0.671108 0.726451
s 0
usemtl Material
f 5/1/1 3/2/1 1/3/1
f 3/2/2 8/4/2 4/5/2
f 7/6/3 6/7/3 8/8/3
f 2/9/4 8/10/4 6/11/4
f 1/3/5 4/5/5 2/9/5
f 5/12/6 2/9/6 6/7/6
f 10/13/3 11/14/3 9/15/3
f 12/16/6 15/17/6 11/14/6
f 16/18/5 13/19/5 15/17/5
f 14/20/2 9/21/2 13/19/2
f 15/17/4 9/22/4 11/23/4
f 12/24/1 14/20/1 16/18/1
f 18/25/3 19/26/3 17/27/3
f 20/28/6 23/29/6 19/26/6
f 24/30/5 21/31/5 23/29/5
f 22/32/2 17/33/2 21/31/2
f 23/29/4 17/34/4 19/35/4
f 20/36/1 22/32/1 24/30/1
f 26/37/3 27/38/3 25/39/3
f 28/40/6 31/41/6 27/38/6
f 32/42/5 29/43/5 31/41/5
f 30/44/2 25/45/2 29/43/2
f 31/41/4 25/46/4 27/47/4
f 28/48/1 30/44/1 32/42/1
f 5/1/1 7/49/1 3/2/1
f 3/2/2 7/50/2 8/4/2
f 7/6/3 5/12/3 6/7/3
f 2/9/4 4/5/4 8/10/4
f 1/3/5 3/2/5 4/5/5
f 5/12/6 1/3/6 2/9/6
f 10/13/3 12/16/3 11/14/3
f 12/16/6 16/18/6 15/17/6
f 16/18/5 14/20/5 13/19/5
f 14/20/2 10/51/2 9/21/2
f 15/17/4 13/19/4 9/22/4
f 12/24/1 10/52/1 14/20/1
f 18/25/3 20/28/3 19/26/3
f 20/28/6 24/30/6 23/29/6
f 24/30/5 22/32/5 21/31/5
f 22/32/2 18/53/2 17/33/2
f 23/29/4 21/31/4 17/34/4
f 20/36/1 18/54/1 22/32/1
f 26/37/3 28/40/3 27/38/3
f 28/40/6 32/42/6 31/41/6
f 32/42/5 30/44/5 29/43/5
f 30/44/2 26/55/2 25/45/2
f 31/41/4 29/43/4 25/46/4
f 28/48/1 26/56/1 30/44/1
