# Blender 4.4.1
# www.blender.org
mtllib rail.mtl
o 線路
v -13.729867 -0.250000 0.103375
v -13.729867 0.250000 0.103375
v -13.729867 -0.250000 -0.103375
v -13.729867 0.250000 -0.103375
v 11.738532 -0.250000 0.103375
v 11.738532 0.250000 0.103375
v 11.738532 -0.250000 -0.103375
v 11.738532 0.250000 -0.103375
v -12.242135 -0.250000 2.194625
v -12.242135 0.250000 2.194625
v -12.242135 -0.250000 1.987876
v -12.242135 0.250000 1.987876
v 12.242132 -0.250000 2.194625
v 12.242132 0.250000 2.194625
v 12.242132 -0.250000 1.987876
v 12.242132 0.250000 1.987876
vn -1.0000 -0.0000 -0.0000
vn -0.0000 -0.0000 -1.0000
vn 1.0000 -0.0000 -0.0000
vn -0.0000 -0.0000 1.0000
vn -0.0000 -1.0000 -0.0000
vn -0.0000 1.0000 -0.0000
vt 0.507639 0.000100
vt 0.509629 0.002091
vt 0.507639 0.004081
vt 0.505648 0.002090
vt 0.255860 0.255860
vt 0.253869 0.253869
vt 0.253869 0.257850
vt 0.251879 0.255860
vt 0.002091 0.509629
vt 0.000100 0.507639
vt 0.002091 0.002091
vt 0.000100 0.004081
vt 0.507639 0.507639
vt 0.505648 0.509629
vt 0.999900 0.488180
vt 0.997909 0.490171
vt 0.995919 0.488180
vt 0.997909 0.486190
vt 0.753869 0.246131
vt 0.755860 0.244140
vt 0.751879 0.244140
vt 0.753869 0.242150
vt 0.509829 0.002091
vt 0.511820 0.000100
vt 0.997909 0.002091
vt 0.995919 0.000100
vt 0.511820 0.488180
vt 0.509829 0.486190
s 0
usemtl マテリアル.001
f 1/1/1 2/2/1 4/3/1 3/4/1
f 3/4/2 4/3/2 8/5/2 7/6/2
f 7/6/3 8/5/3 6/7/3 5/8/3
f 5/8/4 6/7/4 2/9/4 1/10/4
f 3/11/5 7/6/5 5/8/5 1/12/5
f 8/5/6 4/13/6 2/14/6 6/7/6
f 9/15/1 10/16/1 12/17/1 11/18/1
f 11/18/2 12/17/2 16/19/2 15/20/2
f 15/20/3 16/19/3 14/21/3 13/22/3
f 13/22/4 14/21/4 10/23/4 9/24/4
f 11/25/5 15/20/5 13/22/5 9/26/5
f 16/19/6 12/27/6 10/28/6 14/21/6
