# Blender 4.4.1
# www.blender.org
mtllib ro.mtl
o Cube.003
v 1.011732 1.000000 -1.000000
v 1.011732 1.000000 1.000000
v 0.708269 1.000000 -1.000000
v 1.011732 -1.000000 -1.000000
v 0.708269 -1.000000 -1.000000
v 1.011732 -1.000000 1.000000
v 0.708269 -1.000000 1.000000
v 0.708269 1.000000 1.000000
v 1.000000 -0.998732 -1.001000
v -1.000000 -0.998731 -1.001000
v 1.000000 -0.998732 0.999000
v -1.000000 -0.998731 0.999000
v 1.000000 -0.695269 -1.001000
v -1.000000 -0.695268 -1.001000
v 1.000000 -0.695269 0.999000
v -1.000000 -0.695268 0.999000
v -0.697142 1.000000 -1.000000
v -0.697142 1.000000 1.000000
v -1.000605 1.000000 -1.000000
v -0.697142 -1.000000 -1.000000
v -1.000605 -1.000000 -1.000000
v -0.697142 -1.000000 1.000000
v -1.000605 -1.000000 1.000000
v -1.000605 1.000000 1.000000
v 1.000000 0.699268 -1.001000
v 1.000000 0.699268 0.999000
v 1.000000 1.002732 -1.001000
v -1.000000 0.699268 -1.001000
v -1.000000 1.002732 -1.001000
v -1.000000 0.699268 0.999000
v -1.000000 1.002732 0.999000
v 1.000000 1.002732 0.999000
vn 1.0000 -0.0000 -0.0000
vn -0.0000 1.0000 -0.0000
vn -0.0000 -0.0000 -1.0000
vn -0.0000 -1.0000 -0.0000
vn -0.0000 -0.0000 1.0000
vn -1.0000 -0.0000 -0.0000
vt 0.500173 0.750000
vt 0.625087 0.750000
vt 0.625087 0.874913
vt 0.500173 0.874913
vt 0.750000 0.750000
vt 0.750000 0.874913
vt 0.500173 0.625087
vt 0.625087 0.625087
vt 0.375260 0.750000
vt 0.375260 0.874913
vt 0.625087 0.999827
vt 0.500173 0.999827
vt 0.500173 0.500173
vt 0.625087 0.500173
vt 0.250000 0.250000
vt 0.374913 0.250000
vt 0.374913 0.374913
vt 0.250000 0.374913
vt 0.125087 0.374913
vt 0.250000 0.499827
vt 0.125087 0.499827
vt 0.125087 0.000173
vt 0.250000 0.000173
vt 0.250000 0.125087
vt 0.125087 0.125087
vt 0.000173 0.250000
vt 0.125087 0.250000
vt 0.000173 0.374913
vt 0.500173 0.250000
vt 0.625087 0.250000
vt 0.625087 0.374913
vt 0.500173 0.374913
vt 0.750000 0.250000
vt 0.750000 0.374913
vt 0.500173 0.125087
vt 0.625087 0.125087
vt 0.375260 0.250000
vt 0.375260 0.374913
vt 0.625087 0.499827
vt 0.500173 0.499827
vt 0.500173 0.000173
vt 0.625087 0.000173
vt 0.125087 0.750000
vt 0.250000 0.750000
vt 0.250000 0.874913
vt 0.125087 0.874913
vt 0.374913 0.750000
vt 0.374913 0.874913
vt 0.125087 0.625087
vt 0.250000 0.625087
vt 0.000173 0.750000
vt 0.000173 0.874913
vt 0.250000 0.999827
vt 0.125087 0.999827
s 1
usemtl マテリアル.003
f 9/15/1 13/16/1 15/17/1 11/18/1
f 12/19/5 11/18/5 15/20/5 16/21/5
f 16/22/2 15/23/2 13/24/2 14/25/2
f 14/26/6 10/27/6 12/19/6 16/28/6
f 10/27/4 9/15/4 11/18/4 12/19/4
f 14/25/3 13/24/3 9/15/3 10/27/3
usemtl マテリアル.002
f 4/1/1 1/2/1 2/3/1 6/4/1
f 1/2/2 3/5/2 8/6/2 2/3/2
f 5/7/3 3/8/3 1/2/3 4/1/3
f 5/9/4 4/1/4 6/4/4 7/10/4
f 6/4/5 2/3/5 8/11/5 7/12/5
f 7/13/6 8/14/6 3/8/6 5/7/6
f 20/29/1 17/30/1 18/31/1 22/32/1
f 17/30/2 19/33/2 24/34/2 18/31/2
f 21/35/3 19/36/3 17/30/3 20/29/3
f 21/37/4 20/29/4 22/32/4 23/38/4
f 22/32/5 18/31/5 24/39/5 23/40/5
f 23/41/6 24/42/6 19/36/6 21/35/6
f 28/43/4 25/44/4 26/45/4 30/46/4
f 25/44/1 27/47/1 32/48/1 26/45/1
f 29/49/3 27/50/3 25/44/3 28/43/3
f 29/51/6 28/43/6 30/46/6 31/52/6
f 30/46/5 26/45/5 32/53/5 31/54/5
o Cube.005
v 1.000000 1.001732 -1.000000
v 1.000000 1.001732 1.000000
v -1.000000 1.001732 -1.000000
v -1.000000 1.001732 1.000000
vn -0.0000 1.0000 -0.0000
vt 0.125087 0.500173
vt 0.250000 0.500173
vt 0.250000 0.625087
vt 0.125087 0.625087
s 1
usemtl マテリアル.002
f 36/55/7 34/56/7 33/57/7 35/58/7
